#!OML:ASF I:\Actors\actors\Patient Classification 2\Patient 1\Session 1\actor1.ASF
:FULLY-SPECIFIED
:DEGREES
413
root -3.62906 18.5995 6.866 7.26335 -10.3029 10.0202
lowerback 21.0631 1.69292 -6.7792
upperback 4.75154 0.337733 -4.76202
thorax -6.59292 0.229728 -1.39156
lowerneck -7.34336 2.02955 -4.73426
upperneck 40.5416 5.03847 -2.29274
head 15.495 1.0978 0.593618
rclavicle 1.98785e-014 3.91606e-014
rhumerus -44.5451 -4.69144 -79.5285
rradius 62.5911
rwrist -36.2358
rhand 11.1315 -40.6069
rfingers 7.12502
rthumb 36.1988 -66.8743
lclavicle 1.98785e-014 3.91606e-014
lhumerus -54.1111 -8.36119 70.6585
lradius 57.4829
lwrist 4.29965
lhand 5.83828 -13.0237
lfingers 7.12502
lthumb 31.1692 14.3454
rfemur -20.9398 11.5888 9.43551
rtibia 29.9444
rfoot -22.7301 -3.69853
rtoes 1.47652
lfemur -33.9361 -16.4526 15.0055
ltibia 111.916
lfoot -2.86211 -16.1129
ltoes -53.3673
414
root -3.68878 18.5833 6.88807 6.41319 -10.7532 10.0741
lowerback 20.6665 1.91972 -7.22094
upperback 4.62186 0.531857 -5.22418
thorax -6.52898 0.32672 -1.69081
lowerneck -7.37938 2.04807 -3.9249
upperneck 40.6261 4.96029 -2.48104
head 15.5717 1.15136 0.356457
rclavicle -3.8763e-014 1.51076e-014
rhumerus -45.7311 -1.60019 -81.4865
rradius 62.8725
rwrist -29.9336
rhand 16.9617 -40.0903
rfingers 7.12502
rthumb 41.6949 -64.7818
lclavicle -3.8763e-014 1.51076e-014
lhumerus -54.993 -10.2936 70.5051
lradius 56.9029
lwrist 2.9908
lhand 10.7038 -11.0365
lfingers 7.12502
lthumb 35.7936 15.3305
rfemur -20.0845 11.9006 9.76566
rtibia 30.1736
rfoot -22.8643 -3.27337
rtoes 1.86798
lfemur -33.6519 -15.8385 16.6819
ltibia 116.723
lfoot -2.88607 -16.0843
ltoes -52.7245
415
root -3.73108 18.5651 6.90459 5.71552 -11.4163 10.2077
lowerback 20.2089 2.20822 -7.72441
upperback 4.44198 0.804942 -5.62765
thorax -6.48946 0.464025 -1.91048
lowerneck -7.42223 2.06676 -3.23556
upperneck 40.6572 4.9406 -2.75667
head 15.6252 1.20398 0.111378
rclavicle 2.08724e-014 1.19271e-015
rhumerus -47.1896 1.60706 -83.332
rradius 63.8533
rwrist -23.7333
rhand 20.2937 -39.6291
rfingers 7.12502
rthumb 44.8086 -63.2037
lclavicle 2.08724e-014 1.19271e-015
lhumerus -56.0388 -12.0578 70.6113
lradius 56.6659
lwrist 1.82798
lhand 14.5255 -9.88892
lfingers 7.12502
lthumb 39.4049 15.5139
rfemur -19.5208 11.987 9.89009
rtibia 30.3689
rfoot -22.7607 -2.53372
rtoes 2.14535
lfemur -33.4413 -14.1973 18.3464
ltibia 121.227
lfoot -2.80814 -16.1794
ltoes -53.1353
416
root -3.76721 18.5523 6.92048 5.14467 -12.0907 10.3295
lowerback 19.6137 2.39093 -8.37715
upperback 4.30593 0.957702 -5.77487
thorax -6.33121 0.544177 -1.72779
lowerneck -7.57918 2.22005 -3.0623
upperneck 40.6447 5.28743 -3.14527
head 15.6833 1.31771 -0.0348704
rclavicle 5.60573e-014 1.23246e-014
rhumerus -48.7262 5.47055 -85.0135
rradius 65.2145
rwrist -17.8738
rhand 21.3243 -39.8223
rfingers 7.12502
rthumb 45.7667 -63.0134
lclavicle 5.60573e-014 1.23246e-014
lhumerus -57.2949 -13.1274 71.0779
lradius 56.7535
lwrist 1.01432
lhand 17.8912 -8.81551
lfingers 7.12502
lthumb 42.5657 15.5821
rfemur -19.056 11.7438 9.98726
rtibia 30.4661
rfoot -22.5283 -1.57951
rtoes 1.81779
lfemur -32.6032 -11.9195 20.2181
ltibia 124.845
lfoot -3.0443 -17.0326
ltoes -54.2562
417
root -3.7983 18.5399 6.93636 4.67393 -12.581 10.2977
lowerback 19.0208 2.52672 -8.69343
upperback 4.15358 1.12747 -5.87137
thorax -6.18977 0.628952 -1.68097
lowerneck -7.65776 2.31881 -3.00331
upperneck 40.6572 5.51514 -3.36605
head 15.7251 1.38797 -0.106821
rclavicle 1.25234e-014 7.95139e-015
rhumerus -50.706 9.31619 -86.7447
rradius 67.0093
rwrist -12.7199
rhand 21.1627 -41.1874
rfingers 7.12502
rthumb 45.6167 -64.4399
lclavicle 1.25234e-014 7.95139e-015
lhumerus -58.6428 -14.3379 71.7004
lradius 57.2683
lwrist 0.846226
lhand 22.4522 -6.56871
lfingers 7.12502
lthumb 46.8122 16.1798
rfemur -18.5529 11.1063 10.2329
rtibia 30.4443
rfoot -22.2158 -0.456761
rtoes 0.898871
lfemur -31.9355 -9.66053 22.6038
ltibia 128.04
lfoot -2.93188 -18.9419
ltoes -54.743
418
root -3.82251 18.5322 6.95327 4.31792 -12.8641 10.0615
lowerback 18.4606 2.63194 -8.66148
upperback 3.97986 1.33285 -5.84209
thorax -6.08682 0.728739 -1.69957
lowerneck -7.61081 2.32633 -3.05993
upperneck 40.6954 5.60583 -3.5217
head 15.7433 1.39578 -0.15193
rclavicle -5.02925e-014 -6.36111e-015
rhumerus -53.2762 13.2402 -88.5806
rradius 68.676
rwrist -6.80364
rhand 19.5648 -39.1813
rfingers 7.12502
rthumb 44.1295 -63.0158
lclavicle -5.02925e-014 -6.36111e-015
lhumerus -60.0259 -15.4435 72.4509
lradius 58.2306
lwrist 1.57221
lhand 23.4415 -6.5959
lfingers 7.12502
lthumb 47.7266 15.7435
rfemur -17.9916 10.0643 10.6444
rtibia 30.225
rfoot -21.6743 0.946848
rtoes 0.15124
lfemur -31.4637 -6.85924 25.0986
ltibia 130.408
lfoot -2.98456 -21.4954
ltoes -55.4649
419
root -3.84193 18.5282 6.97474 4.00955 -12.9749 9.72559
lowerback 17.9045 2.74358 -8.43172
upperback 3.8178 1.59291 -5.70833
thorax -5.97197 0.853235 -1.72501
lowerneck -7.43058 2.24745 -2.92313
upperneck 40.7783 5.64053 -3.98799
head 15.7757 1.37315 -0.376256
rclavicle 4.77083e-015 -2.38542e-014
rhumerus -56.3959 16.9961 -90.4251
rradius 70.7891
rwrist -1.44512
rhand 17.2629 -37.8655
rfingers 7.12502
rthumb 41.9773 -62.4632
lclavicle 4.77083e-015 -2.38542e-014
lhumerus -61.4424 -16.3494 73.2654
lradius 59.7046
lwrist 3.37083
lhand 25.3969 -5.15905
lfingers 7.12502
lthumb 49.5253 16.3094
rfemur -17.3138 8.91477 11.1188
rtibia 29.8014
rfoot -21.0718 2.33359
rtoes -0.513344
lfemur -31.0537 -3.79403 27.6068
ltibia 132.113
lfoot -2.68654 -24.9518
ltoes -55.8589
420
root -3.86125 18.5331 7.00085 3.70938 -12.8451 9.37253
lowerback 17.4213 2.82001 -8.09049
upperback 3.74649 1.83184 -5.46678
thorax -5.79543 0.964688 -1.68844
lowerneck -7.37265 2.11962 -2.90457
upperneck 40.8251 5.6262 -4.42297
head 15.8134 1.31784 -0.570603
rclavicle 1.09332e-014 -3.33958e-014
rhumerus -59.7327 20.6373 -92.2242
rradius 72.8903
rwrist 3.24764
rhand 14.4171 -36.6701
rfingers 7.12502
rthumb 39.3027 -62.1028
lclavicle 1.09332e-014 -3.33958e-014
lhumerus -62.7031 -16.9681 74.1541
lradius 61.5266
lwrist 5.55143
lhand 25.7877 -5.36336
lfingers 7.12502
lthumb 49.8834 15.9204
rfemur -16.4535 7.88175 11.6006
rtibia 29.1818
rfoot -20.6824 3.35603
rtoes -1.44652
lfemur -30.3631 -1.06822 29.3357
ltibia 132.717
lfoot -0.937452 -28.6365
ltoes -54.8571
421
root -3.87991 18.5464 7.02369 3.49002 -12.3915 8.99529
lowerback 17.0554 2.83119 -7.526
upperback 3.72257 2.01349 -5.19474
thorax -5.62209 1.04594 -1.73284
lowerneck -7.47263 1.91687 -3.15682
upperneck 40.8874 5.40848 -4.42322
head 15.8619 1.19049 -0.555501
rclavicle -4.4329e-014 3.65764e-014
rhumerus -63.1617 23.954 -93.9679
rradius 74.7667
rwrist 7.53115
rhand 11.1834 -35.3696
rfingers 7.12502
rthumb 36.2479 -61.6249
lclavicle -4.4329e-014 3.65764e-014
lhumerus -63.6697 -17.684 75.1407
lradius 63.2835
lwrist 7.45333
lhand 25.3544 -5.49743
lfingers 7.12502
lthumb 49.4863 15.9909
rfemur -15.5224 6.97713 12.0914
rtibia 28.4
rfoot -20.4846 3.96271
rtoes -2.28965
lfemur -29.6308 2.01642 29.7264
ltibia 132.191
lfoot -0.187354 -31.2252
ltoes -56.3684
422
root -3.89329 18.5606 7.04051 3.31712 -11.694 8.61088
lowerback 16.8178 2.78376 -6.78589
upperback 3.66905 2.12625 -4.94053
thorax -5.53989 1.09413 -1.88679
lowerneck -7.41195 1.65874 -3.42305
upperneck 40.9017 5.03052 -4.25678
head 15.8342 1.02083 -0.49022
rclavicle 3.89618e-014 1.15295e-014
rhumerus -66.8116 26.8815 -95.7785
rradius 76.4922
rwrist 11.282
rhand 7.83059 -34.3653
rfingers 7.12502
rthumb 33.0659 -61.3516
lclavicle 3.89618e-014 1.15295e-014
lhumerus -64.551 -18.6658 76.2127
lradius 64.8546
lwrist 9.09732
lhand 23.4925 -6.19373
lfingers 7.12502
lthumb 47.7737 16.124
rfemur -14.5486 6.27596 12.5659
rtibia 27.4932
rfoot -20.4138 4.12856
rtoes -2.89137
lfemur -29.0727 4.42935 29.4875
ltibia 131.179
lfoot 2.57967 -33.4906
ltoes -54.3182
423
root -3.9016 18.5771 7.05297 3.10677 -10.8071 8.33621
lowerback 16.7021 2.65246 -6.13769
upperback 3.64642 2.10231 -4.63046
thorax -5.49173 1.07725 -1.90594
lowerneck -7.24552 1.40715 -3.75462
upperneck 40.8162 4.6811 -4.14834
head 15.7334 0.850737 -0.433446
rclavicle 2.96189e-014 -3.81667e-014
rhumerus -70.463 29.7125 -97.4882
rradius 78.003
rwrist 14.2662
rhand 4.53471 -33.4103
rfingers 7.12502
rthumb 29.9261 -61.0109
lclavicle 2.96189e-014 -3.81667e-014
lhumerus -65.3638 -19.4064 77.3252
lradius 66.3134
lwrist 10.4241
lhand 20.72 -6.90817
lfingers 7.12502
lthumb 45.2052 16.5101
rfemur -13.4904 5.68907 12.9142
rtibia 26.5082
rfoot -20.4356 3.95171
rtoes -3.54149
lfemur -28.734 6.84983 27.5087
ltibia 129.201
lfoot 3.48068 -34.674
ltoes -54.2375
424
root -3.8978 18.5947 7.05592 2.87298 -9.89765 8.06115
lowerback 16.7693 2.45585 -5.36894
upperback 3.67793 1.99991 -4.2845
thorax -5.48095 1.02023 -1.94567
lowerneck -7.20213 1.16816 -4.14023
upperneck 40.7583 4.38657 -4.0793
head 15.682 0.686847 -0.374932
rclavicle -3.25013e-014 8.11041e-014
rhumerus -73.9139 32.4385 -98.9529
rradius 79.2274
rwrist 16.49
rhand 1.2848 -32.427
rfingers 7.12502
rthumb 26.8204 -60.5451
lclavicle -3.25013e-014 8.11041e-014
lhumerus -65.9511 -19.7254 78.2965
lradius 67.6909
lwrist 11.4442
lhand 17.5302 -7.77515
lfingers 7.12502
lthumb 42.2278 16.7381
rfemur -12.4504 5.17311 13.2291
rtibia 25.4892
rfoot -20.4478 3.66024
rtoes -4.0472
lfemur -28.4063 8.97021 24.9492
ltibia 126.67
lfoot 4.73316 -35.7407
ltoes -53.9046
425
root -3.8716 18.6131 7.04664 2.64968 -9.15996 7.67676
lowerback 17.0823 2.32531 -4.02482
upperback 3.65776 2.05126 -4.1316
thorax -5.63276 1.03075 -2.56394
lowerneck -7.09697 0.842839 -4.06181
upperneck 40.7681 3.8973 -4.11227
head 15.6592 0.498177 -0.473031
rclavicle 3.42904e-015 6.61953e-014
rhumerus -77.1556 34.3646 -100.178
rradius 80.3083
rwrist 18.7306
rhand -0.875549 -31.6313
rfingers 7.12502
rthumb 24.7515 -60.0499
lclavicle 3.42904e-015 6.61953e-014
lhumerus -66.3712 -20.3239 78.9981
lradius 69.0719
lwrist 12.4301
lhand 14.1415 -9.09755
lfingers 7.12502
lthumb 39.0429 16.4102
rfemur -11.5422 4.73298 13.5757
rtibia 24.4683
rfoot -20.3391 3.35694
rtoes -4.60525
lfemur -28.2276 11.0062 21.6547
ltibia 123.402
lfoot 5.52512 -36.0561
ltoes -53.7829
426
root -3.8538 18.6328 7.04592 2.35042 -8.06319 7.44622
lowerback 17.3534 2.32741 -2.50541
upperback 3.61057 2.30025 -4.2895
thorax -5.76051 1.13227 -3.6624
lowerneck -6.60293 0.239293 -3.18544
upperneck 40.797 2.76123 -4.06579
head 15.5413 0.17672 -0.773242
rclavicle -3.62782e-014 1.45113e-014
rhumerus -80.0974 34.7678 -101.023
rradius 81.4396
rwrist 21.2163
rhand -1.0334 -31.0458
rfingers 7.12502
rthumb 24.6002 -59.4851
lclavicle -3.62782e-014 1.45113e-014
lhumerus -66.6193 -22.018 79.4462
lradius 70.3904
lwrist 13.5254
lhand 10.8182 -10.6211
lfingers 7.12502
lthumb 35.9019 15.7194
rfemur -10.4797 4.37501 13.8236
rtibia 23.5827
rfoot -20.6339 2.74312
rtoes -5.18143
lfemur -28.0841 12.1825 17.5772
ltibia 119.188
lfoot 6.03465 -35.3847
ltoes -53.0714
